<svg width="24" height="24" viewBox="0 0 24 24" fill="none" xmlns="http://www.w3.org/2000/svg">
<path d="M16.6187 0C16.6746 0 16.7304 0 16.7894 0C16.9264 1.69253 16.2804 2.95719 15.4953 3.87301C14.7249 4.78251 13.67 5.6646 11.9637 5.53076C11.8499 3.86247 12.497 2.69161 13.2811 1.77789C14.0083 0.92636 15.3414 0.168621 16.6187 0Z" fill="#585252"/>
<path d="M21.7836 17.6164C21.7836 17.6332 21.7836 17.648 21.7836 17.6638C21.3041 19.1161 20.6201 20.3607 19.7855 21.5157C19.0235 22.5643 18.0898 23.9755 16.4225 23.9755C14.9819 23.9755 14.025 23.0491 12.5485 23.0238C10.9866 22.9985 10.1277 23.7984 8.6997 23.9997C8.53635 23.9997 8.373 23.9997 8.21281 23.9997C7.1642 23.848 6.31793 23.0175 5.70141 22.2693C3.88347 20.0582 2.47865 17.2022 2.21729 13.5474C2.21729 13.189 2.21729 12.8318 2.21729 12.4735C2.32794 9.85772 3.59892 7.73099 5.28829 6.7003C6.17987 6.15228 7.40553 5.68541 8.77031 5.89408C9.35521 5.98471 9.95276 6.18495 10.4765 6.38308C10.9729 6.57383 11.5937 6.91213 12.1817 6.89421C12.5801 6.88262 12.9763 6.67501 13.3779 6.52852C14.554 6.1038 15.7069 5.61691 17.2266 5.8456C19.053 6.12172 20.3493 6.93321 21.1502 8.18522C19.6052 9.16848 18.3838 10.6502 18.5925 13.1806C18.7779 15.4791 20.1143 16.8239 21.7836 17.6164Z" fill="#585252"/>
</svg>
