<svg width="22" height="22" viewBox="0 0 22 22" fill="none" xmlns="http://www.w3.org/2000/svg">
<path d="M20.9749 1.04097C20.3574 0.42347 19.3599 0.42347 18.7424 1.04097L10.9999 8.76764L3.25739 1.02514C2.63989 0.407637 1.64239 0.407637 1.02489 1.02514C0.407393 1.64264 0.407393 2.64014 1.02489 3.25764L8.76739 11.0001L1.02489 18.7426C0.407393 19.3601 0.407393 20.3576 1.02489 20.9751C1.64239 21.5926 2.63989 21.5926 3.25739 20.9751L10.9999 13.2326L18.7424 20.9751C19.3599 21.5926 20.3574 21.5926 20.9749 20.9751C21.5924 20.3576 21.5924 19.3601 20.9749 18.7426L13.2324 11.0001L20.9749 3.25764C21.5766 2.65597 21.5766 1.64264 20.9749 1.04097Z" fill="#33343C"/>
</svg>
