<svg width="17" height="10" viewBox="0 0 17 10" fill="none" xmlns="http://www.w3.org/2000/svg">
<path d="M0.605748 5.25635L4.24203 8.89266C4.37265 9.04519 4.60221 9.06297 4.75474 8.93232C4.90727 8.8017 4.92505 8.57214 4.79439 8.41961C4.78221 8.40539 4.76896 8.39211 4.75474 8.37995L1.74026 5.36182L16.1364 5.36182C16.3372 5.36182 16.5 5.19901 16.5 4.99817C16.5 4.79733 16.3372 4.63455 16.1364 4.63455L1.74026 4.63455L4.75474 1.62007C4.90727 1.48945 4.92505 1.25989 4.79439 1.10736C4.66374 0.954833 4.43421 0.937053 4.28168 1.06771C4.26746 1.07989 4.25418 1.09314 4.24203 1.10736L0.605716 4.74367C0.464751 4.88545 0.464751 5.11451 0.605748 5.25635Z" fill="white"/>
</svg>
