<svg width="17" height="10" viewBox="0 0 17 10" fill="none" xmlns="http://www.w3.org/2000/svg">
<path d="M0.107329 5.25611L3.79631 8.89242C3.92883 9.04495 4.16171 9.06273 4.31645 8.93207C4.47119 8.80145 4.48923 8.57189 4.35668 8.41936C4.34432 8.40515 4.33087 8.39187 4.31645 8.37971L1.25828 5.36157L15.863 5.36158C16.0668 5.36158 16.2319 5.19877 16.2319 4.99793C16.2319 4.79709 16.0668 4.63431 15.863 4.63431L1.25828 4.63431L4.31645 1.61983C4.47119 1.4892 4.48923 1.25965 4.35668 1.10712C4.22413 0.954589 3.99128 0.936808 3.83654 1.06746C3.82211 1.07965 3.80864 1.0929 3.79631 1.10712L0.107298 4.74343C-0.0357109 4.88521 -0.0357109 5.11427 0.107329 5.25611Z" fill="#474E9F"/>
</svg>
