<svg width="16" height="16" viewBox="0 0 16 16" fill="none" xmlns="http://www.w3.org/2000/svg">
<g clip-path="url(#clip0_134_3455)">
<path d="M13.6311 5.30164C13.459 5.15367 13.2861 5.01233 13.1126 4.87695L11.0907 6.89886C11.2139 7.24345 11.2813 7.61442 11.2813 8.00083C11.2813 9.81011 9.8093 11.2821 8.00002 11.2821C7.61362 11.2821 7.24265 11.2147 6.89805 11.0915L5.38062 12.609C6.26674 12.9725 7.14565 13.1571 8.00002 13.1571C9.02055 13.1571 10.076 12.8947 11.137 12.3772C11.9702 11.9708 12.8093 11.4065 13.6311 10.7C15.0203 9.50545 15.8761 8.32427 15.9118 8.27455C16.0295 8.11105 16.0295 7.89064 15.9118 7.72711C15.8761 7.67739 15.0203 6.4962 13.6311 5.30164V5.30164Z" fill="#666A9C"/>
<path d="M8.00013 10.3439C9.29248 10.3439 10.3439 9.29248 10.3439 8.00013C10.3439 7.8877 10.3354 7.7772 10.32 7.66895L7.66895 10.32C7.77723 10.3354 7.8877 10.3439 8.00013 10.3439V10.3439Z" fill="#666A9C"/>
<path d="M15.8627 0.137273C15.6797 -0.0457578 15.3829 -0.0457578 15.1998 0.137273L11.5171 3.82002C11.3903 3.75102 11.2636 3.6853 11.137 3.62359C10.076 3.10609 9.02056 2.84371 8.00002 2.84371C6.97949 2.84371 5.92402 3.10609 4.86302 3.62355C4.02984 4.02996 3.19071 4.59427 2.36899 5.30077C0.979805 6.49534 0.123992 7.67652 0.0882422 7.72624C-0.0294141 7.88974 -0.0294141 8.11015 0.0882422 8.27368C0.123992 8.3234 0.979773 9.50462 2.36899 10.6991C2.79471 11.0652 3.22512 11.3926 3.65693 11.6801L0.137336 15.1998C-0.0457266 15.3828 -0.0457266 15.6796 0.137336 15.8627C0.228867 15.9542 0.348805 16 0.468773 16C0.588742 16 0.708711 15.9542 0.800211 15.8626L15.8627 0.800148C16.0458 0.617117 16.0458 0.320305 15.8627 0.137273V0.137273ZM4.71877 7.99996C4.71877 6.19068 6.19074 4.71871 8.00002 4.71871C8.73599 4.71871 9.41612 4.96227 9.96409 5.37302L9.29159 6.04552C8.92099 5.79977 8.47706 5.65621 8.00002 5.65621C6.70768 5.65621 5.65627 6.70762 5.65627 7.99996C5.65627 8.47696 5.79984 8.9209 6.04559 9.29152L5.37309 9.96402C4.96234 9.41605 4.71877 8.73593 4.71877 7.99996V7.99996Z" fill="#666A9C"/>
</g>
<defs>
<clipPath id="clip0_134_3455">
<rect width="16" height="16" fill="white"/>
</clipPath>
</defs>
</svg>
