<svg width="19" height="19" viewBox="0 0 19 19" fill="none" xmlns="http://www.w3.org/2000/svg">
<path d="M1.39662 15.0973C1.43491 14.7527 1.45405 14.5804 1.50618 14.4194C1.55243 14.2765 1.61778 14.1405 1.70045 14.0152C1.79363 13.8739 1.91621 13.7513 2.16136 13.5061L13.1666 2.5009C14.0871 1.58043 15.5795 1.58043 16.4999 2.5009C17.4204 3.42138 17.4204 4.91376 16.4999 5.83424L5.49469 16.8395C5.24954 17.0846 5.12696 17.2072 4.98566 17.3004C4.86029 17.383 4.72433 17.4484 4.58146 17.4946C4.42042 17.5468 4.24813 17.5659 3.90356 17.6042L1.08325 17.9176L1.39662 15.0973Z" stroke="#666A9C" stroke-width="1.66667" stroke-linecap="round" stroke-linejoin="round"/>
</svg>
