<svg width="16" height="10" viewBox="0 0 16 10" fill="none" xmlns="http://www.w3.org/2000/svg">
<path d="M15.8943 4.74389L12.258 1.10758C12.1273 0.955052 11.8978 0.937271 11.7453 1.06792C11.5927 1.19855 11.575 1.42811 11.7056 1.58063C11.7178 1.59485 11.731 1.60813 11.7453 1.62029L14.7597 4.63842L0.363619 4.63842C0.16281 4.63842 0 4.80123 0 5.00207C0 5.20291 0.16281 5.36569 0.363619 5.36569L14.7597 5.36569L11.7453 8.38017C11.5927 8.51079 11.575 8.74035 11.7056 8.89288C11.8363 9.04541 12.0658 9.06319 12.2183 8.93254C12.2325 8.92035 12.2458 8.9071 12.258 8.89288L15.8943 5.25657C16.0352 5.11479 16.0352 4.88573 15.8943 4.74389Z" fill="white"/>
</svg>
