<svg width="53" height="50" viewBox="0 0 53 50" fill="none" xmlns="http://www.w3.org/2000/svg">
<path d="M47.3096 37.8559C46.901 37.8607 46.9458 37.8409 46.4025 37.8789V25.1686C46.4025 23.8084 45.2958 22.7017 43.9356 22.7017H37.7072C37.7039 22.7017 37.7007 22.7011 37.6973 22.7011H30.5252V3.55359L36.4074 9.23953C36.7399 9.56097 36.9305 10.0104 36.9305 10.4728V19.8535C36.9305 20.277 37.2739 20.6203 37.6973 20.6203C38.1208 20.6203 38.4641 20.277 38.4641 19.8535V10.4728C38.4641 9.59706 38.103 8.74562 37.4732 8.1369L30.2912 1.19466C30.1298 1.04315 29.8204 0.907172 29.514 1.01912L16.63 5.3499V2.36457C16.6397 1.06012 15.4693 -0.0752279 14.1078 0.00390392C12.8056 0.00390392 11.7461 1.06288 11.7461 2.36457V6.99153L8.3752 8.12463C7.05112 8.56977 6.16145 9.80726 6.16145 11.2042V37.8601C2.74927 37.9475 0 40.7484 0 44.1813V48.0804C0 49.139 0.861147 50 1.91961 50H50.4259C51.4845 50 52.3455 49.1389 52.3455 48.0804V42.8918C52.3456 40.1151 50.0865 37.8559 47.3096 37.8559ZM47.3096 39.3895C49.2409 39.3895 50.8121 40.9607 50.8121 42.8919V43.6963H43.3743V42.8919C43.376 40.796 45.2176 39.2079 47.3096 39.3895ZM44.869 25.1686V38.2746C43.0886 39.0518 41.8407 40.8284 41.8407 42.8918V43.6962H30.5252V24.2352H43.9356C44.4502 24.2352 44.869 24.654 44.869 25.1686ZM13.2796 2.36457C13.2796 1.90849 13.6512 1.53747 14.1078 1.53747C14.5178 1.47725 15.07 1.79879 15.0964 2.36457V5.86539L13.2796 6.47605V2.36457ZM6.16155 39.3922V43.6963H1.5579C1.79642 41.3344 3.75723 39.4734 6.16155 39.3922ZM1.53356 48.0805V45.2299H6.16155V48.4665H1.91971C1.70675 48.4665 1.53356 48.2933 1.53356 48.0805ZM7.69511 11.2042C7.69511 10.4667 8.16479 9.81339 8.86389 9.57835L28.9917 2.81268V6.99061L12.2685 12.6119C11.8671 12.7468 11.6511 13.1816 11.786 13.5831C11.8937 13.9035 12.1924 14.1057 12.5127 14.1057C12.5937 14.1057 12.6761 14.0928 12.7572 14.0656L28.9917 8.60862V12.5095L12.2685 18.1307C11.8671 18.2657 11.6511 18.7005 11.786 19.1019C11.8937 19.4223 12.1924 19.6245 12.5127 19.6245C12.5937 19.6245 12.6761 19.6116 12.7572 19.5843L28.9917 14.1273V18.0282L12.2685 23.6495C11.8671 23.7844 11.6511 24.2192 11.786 24.6207C11.8937 24.9411 12.1924 25.1433 12.5127 25.1433C12.5937 25.1433 12.6761 25.1304 12.7572 25.1031L28.9917 19.6462V23.4656C28.9917 23.4666 28.9916 23.4675 28.9916 23.4685V23.5472L12.2685 29.1683C11.8671 29.3032 11.6511 29.7381 11.786 30.1394C11.8937 30.4599 12.1924 30.6621 12.5127 30.6621C12.5937 30.6621 12.6761 30.6492 12.7572 30.6219L28.9915 25.1649V29.0658L18.5493 32.5759C18.1479 32.7107 17.9319 33.1455 18.0668 33.547C18.1745 33.8674 18.4732 34.0697 18.7935 34.0697C18.8745 34.0697 18.9569 34.0568 19.038 34.0295L28.9915 30.6836V48.4664H22.3673V40.4988C22.3673 39.9765 22.1287 39.4958 21.7127 39.1801C21.2967 38.8644 20.7696 38.7638 20.2665 38.9043L13.1297 40.8967C12.3151 41.124 11.7463 41.8734 11.7463 42.7192V48.4664H7.69511V11.2042ZM13.2798 42.7193C13.2798 42.5589 13.3877 42.4169 13.542 42.3738L16.2899 41.6066V48.4665H13.2797V42.7193H13.2798ZM17.8235 48.4665V41.1784L20.6789 40.3813C20.7174 40.3704 20.7534 40.3772 20.7854 40.4016C20.8174 40.426 20.8337 40.4587 20.8337 40.4989V48.4665H17.8235ZM30.5252 48.4665V45.2299H41.8407V48.4665H30.5252ZM50.8121 48.0805C50.8121 48.2934 50.6389 48.4665 50.426 48.4665H43.3743V45.2299H50.8121V48.0805Z" fill="#474E9F"/>
<path d="M12.512 36.1814C12.593 36.1814 12.6754 36.1686 12.7565 36.1413L15.6034 35.1843C16.0047 35.0495 16.2208 34.6146 16.0858 34.2132C15.9509 33.8117 15.516 33.5955 15.1147 33.7307L12.2678 34.6876C11.8664 34.8225 11.6503 35.2573 11.7853 35.6588C11.893 35.9791 12.1917 36.1814 12.512 36.1814Z" fill="#474E9F"/>
<path d="M33.8829 30.5599H41.4026C42.1157 30.5599 42.6958 29.9798 42.6958 29.2668V27.4211C42.6958 26.708 42.1157 26.1279 41.4026 26.1279H33.8829C33.1698 26.1279 32.5898 26.708 32.5898 27.4211V29.2668C32.5898 29.9798 33.1699 30.5599 33.8829 30.5599ZM34.1234 27.6615H41.1623V29.0264H34.1234V27.6615Z" fill="#474E9F"/>
<path d="M33.8829 36.39H41.4026C42.1157 36.39 42.6958 35.8099 42.6958 35.0968V33.2511C42.6958 32.538 42.1157 31.958 41.4026 31.958H33.8829C33.1698 31.958 32.5898 32.5381 32.5898 33.2511V35.0968C32.5898 35.8099 33.1699 36.39 33.8829 36.39ZM34.1234 33.4916H41.1623V34.8564H34.1234V33.4916Z" fill="#474E9F"/>
<path d="M33.8829 42.2806H36.3702C37.0833 42.2806 37.6634 41.7005 37.6634 40.9875V39.1418C37.6634 38.4287 37.0833 37.8486 36.3702 37.8486H33.8829C33.1698 37.8486 32.5898 38.4287 32.5898 39.1418V40.9875C32.5898 41.7005 33.1699 42.2806 33.8829 42.2806ZM34.1234 39.3822H36.1298V40.7471H34.1234V39.3822Z" fill="#474E9F"/>
</svg>
