<svg width="50" height="50" viewBox="0 0 60 60" fill="none" xmlns="http://www.w3.org/2000/svg">
<path d="M41.0508 29.8945C41.9766 19.6289 38.3907 9.16406 30.8672 1.64063C30.4102 1.18359 29.6016 1.18359 29.1446 1.64063C21.6212 9.16406 18.0352 19.6172 18.961 29.8945C16.3594 32.6953 14.9297 36.3047 14.9297 40.1484C14.9297 44.0273 16.4063 47.7188 19.0899 50.5313C19.7462 51.2227 21.4219 50.9063 21.1524 49.3828C21.0118 48.5859 20.836 47.8125 20.836 47.0508C20.836 45.1523 21.4102 43.3477 22.4766 41.8242C22.6524 41.918 22.8516 41.9766 23.0626 41.9766H36.9493C37.1602 41.9766 37.3594 41.918 37.5352 41.8242C38.6016 43.3477 39.1758 45.1523 39.1758 47.0508C39.1758 47.8125 38.9766 48.5742 38.8594 49.3828C38.6133 51.0703 40.3712 51.1289 40.9219 50.5313C43.5938 47.707 45.0821 44.0273 45.0821 40.1484C45.0704 36.3047 43.6524 32.6836 41.0508 29.8945ZM30.0001 4.26563C32.1797 6.60938 33.961 9.2461 35.3438 12.0469H24.668C26.0391 9.23438 27.8204 6.60938 30.0001 4.26563ZM18.5157 45.3984C17.7657 43.7695 17.379 41.9883 17.379 40.1484C17.379 37.6641 18.0938 35.2852 19.4297 33.2461C19.4415 33.3398 20.7188 38.2266 21.211 39.4805C19.7462 41.168 18.8204 43.207 18.5157 45.3984ZM36.1407 39.5273H23.8594C20.4141 31.4414 20.4493 22.4063 23.5782 14.4727H36.4219C39.5508 22.4063 39.586 31.4414 36.1407 39.5273ZM38.8008 39.4805C39.4805 37.7344 40.5704 33.3164 40.5821 33.2461C41.918 35.2734 42.6329 37.6523 42.6329 40.1484C42.6329 41.9883 42.2344 43.7695 41.4962 45.3984C41.1797 43.207 40.254 41.168 38.8008 39.4805Z" fill="#474E9F"/>
<path d="M25.0663 44.0156C24.3866 44.0156 23.8475 44.5664 23.8475 45.2344V51.3633C23.8475 52.043 24.3983 52.582 25.0663 52.582C25.7343 52.582 26.285 52.0312 26.285 51.3633V45.2344C26.285 44.5547 25.7343 44.0156 25.0663 44.0156Z" fill="#474E9F"/>
<path d="M29.9999 44.0156C29.66 44.0156 29.3553 44.1563 29.1327 44.3789C29.1327 44.3789 29.1327 44.3789 29.121 44.3906C28.9803 44.5312 28.8749 44.7187 28.8163 44.9297C28.7928 45.0352 28.7694 45.1406 28.7694 45.2578V57.5039C28.7694 57.5977 28.7811 57.6914 28.8046 57.7852C28.9335 58.3242 29.4139 58.7227 29.9882 58.7227C30.5624 58.7227 31.0428 58.3242 31.1718 57.7852C31.1952 57.6914 31.2069 57.5977 31.2069 57.5039V45.2344C31.2069 45.1172 31.1952 45.0117 31.16 44.9063C31.0311 44.3906 30.5624 44.0156 29.9999 44.0156Z" fill="#474E9F"/>
<path d="M34.9337 44.0156C34.254 44.0156 33.7149 44.5664 33.7149 45.2344V51.3633C33.7149 52.043 34.2657 52.582 34.9337 52.582C35.6016 52.582 36.1524 52.0312 36.1524 51.3633V45.2344C36.1641 44.5547 35.6133 44.0156 34.9337 44.0156Z" fill="#474E9F"/>
</svg>
