<svg width="50" height="50" viewBox="0 0 50 50" fill="none" xmlns="http://www.w3.org/2000/svg">
<path d="M35.5229 26.9463H28.7289C26.8695 26.9463 25.3574 28.4583 25.3574 30.3178V35.5282C25.3574 37.3876 26.8695 38.8997 28.7289 38.8997H35.5229C37.3824 38.8997 38.8944 37.3876 38.8944 35.5282V30.3178C38.8944 28.4583 37.3824 26.9463 35.5229 26.9463ZM36.4424 35.5282C36.4424 36.0391 36.0235 36.4477 35.5229 36.4477H28.7289C28.2181 36.4477 27.8094 36.0288 27.8094 35.5282V30.3178C27.8094 29.8069 28.2283 29.3983 28.7289 29.3983H35.5229C36.0338 29.3983 36.4424 29.8172 36.4424 30.3178V35.5282Z" fill="#474E9F"/>
<path d="M50 17.4751C50 17.2606 49.9489 17.0562 49.8365 16.8723L42.3989 3.79509C42.1843 3.41707 41.7756 3.17188 41.3363 3.17188H8.65345C8.21414 3.17188 7.80548 3.40686 7.59093 3.79509L0.163465 16.8723C0.0612996 17.0562 0 17.2606 0 17.4751C0 20.4073 1.76747 22.9205 4.29097 24.0342V45.6014C4.29097 46.2757 4.84266 46.8274 5.51696 46.8274H12.2906C12.3008 46.8274 12.311 46.8274 12.3212 46.8274H21.8226C21.8329 46.8274 21.8431 46.8274 21.8533 46.8274H44.4728C45.1471 46.8274 45.6988 46.2757 45.6988 45.6014V24.1874C45.6988 24.1363 45.6988 24.0955 45.6886 24.0546C48.2223 22.941 50 20.4175 50 17.4751ZM9.36861 5.63407H40.6212L46.4344 15.8609H3.56559L9.36861 5.63407ZM35.5844 18.3026C35.1962 20.5094 33.2652 22.185 30.9461 22.185C28.6269 22.185 26.696 20.5094 26.3077 18.3026H35.5844ZM23.7025 18.3026C23.3143 20.5094 21.3833 22.185 19.0642 22.185C16.745 22.185 14.8141 20.5094 14.4156 18.3026H23.7025ZM2.53371 18.3026H11.8206C11.4324 20.5094 9.49121 22.185 7.17205 22.185C4.85288 22.1952 2.92195 20.5094 2.53371 18.3026ZM20.5966 44.3754H13.5472V31.1449C13.5472 30.1845 14.3237 29.3979 15.2942 29.3979H18.8598C19.8202 29.3979 20.6069 30.1743 20.6069 31.1449V44.3754H20.5966ZM43.2468 44.3754H23.0486V31.1449C23.0486 28.836 21.1688 26.9459 18.8496 26.9459H15.284C12.9751 26.9459 11.085 28.8257 11.085 31.1449V44.3856H6.74295V24.6369C6.88598 24.6472 7.02901 24.6472 7.17205 24.6472C9.64446 24.6472 11.8308 23.3905 13.1181 21.48C14.4054 23.3905 16.5917 24.6472 19.0642 24.6472C21.5366 24.6472 23.7127 23.3905 25.0102 21.48C26.2975 23.3905 28.4839 24.6472 30.9461 24.6472C33.4185 24.6472 35.5946 23.3905 36.8819 21.48C38.1692 23.3905 40.3555 24.6472 42.828 24.6472C42.971 24.6472 43.1038 24.6369 43.2468 24.6369V44.3754ZM42.828 22.1952C40.5088 22.1952 38.5778 20.5196 38.1896 18.3129H47.4765C47.0781 20.5094 45.1471 22.1952 42.828 22.1952Z" fill="#474E9F"/>
</svg>