<svg width="50" height="50" viewBox="0 0 50 50" fill="none" xmlns="http://www.w3.org/2000/svg">
<g clip-path="url(#clip0_39_1147)">
<path d="M35.5231 26.9463H28.7291C26.8697 26.9463 25.3576 28.4583 25.3576 30.3178V35.5282C25.3576 37.3876 26.8697 38.8997 28.7291 38.8997H35.5231C37.3826 38.8997 38.8946 37.3876 38.8946 35.5282V30.3178C38.8946 28.4583 37.3826 26.9463 35.5231 26.9463ZM36.4426 35.5282C36.4426 36.0391 36.0238 36.4477 35.5231 36.4477H28.7291C28.2183 36.4477 27.8096 36.0288 27.8096 35.5282V30.3178C27.8096 29.8069 28.2285 29.3983 28.7291 29.3983H35.5231C36.034 29.3983 36.4426 29.8172 36.4426 30.3178V35.5282Z" fill="#1A94B6"/>
<path d="M50.0002 17.4751C50.0002 17.2606 49.9491 17.0562 49.8367 16.8723L42.3991 3.79509C42.1845 3.41707 41.7758 3.17188 41.3365 3.17188H8.65366C8.21434 3.17188 7.80568 3.40686 7.59113 3.79509L0.163671 16.8723C0.0615055 17.0562 0.000205994 17.2606 0.000205994 17.4751C0.000205994 20.4073 1.76768 22.9205 4.29117 24.0342V45.6014C4.29117 46.2757 4.84287 46.8274 5.51717 46.8274H12.2908C12.301 46.8274 12.3112 46.8274 12.3214 46.8274H21.8228C21.8331 46.8274 21.8433 46.8274 21.8535 46.8274H44.473C45.1473 46.8274 45.699 46.2757 45.699 45.6014V24.1874C45.699 24.1363 45.699 24.0955 45.6888 24.0546C48.2225 22.941 50.0002 20.4175 50.0002 17.4751ZM9.36882 5.63407H40.6214L46.4346 15.8609H3.5658L9.36882 5.63407ZM35.5846 18.3026C35.1964 20.5094 33.2654 22.185 30.9463 22.185C28.6271 22.185 26.6962 20.5094 26.3079 18.3026H35.5846ZM23.7027 18.3026C23.3145 20.5094 21.3835 22.185 19.0644 22.185C16.7452 22.185 14.8143 20.5094 14.4158 18.3026H23.7027ZM2.53392 18.3026H11.8208C11.4326 20.5094 9.49142 22.185 7.17225 22.185C4.85309 22.1952 2.92215 20.5094 2.53392 18.3026ZM20.5969 44.3754H13.5474V31.1449C13.5474 30.1845 14.3239 29.3979 15.2944 29.3979H18.86C19.8204 29.3979 20.6071 30.1743 20.6071 31.1449V44.3754H20.5969ZM43.247 44.3754H23.0488V31.1449C23.0488 28.836 21.169 26.9459 18.8498 26.9459H15.2842C12.9753 26.9459 11.0852 28.8257 11.0852 31.1449V44.3856H6.74316V24.6369C6.88619 24.6472 7.02922 24.6472 7.17225 24.6472C9.64467 24.6472 11.831 23.3905 13.1183 21.48C14.4056 23.3905 16.592 24.6472 19.0644 24.6472C21.5368 24.6472 23.7129 23.3905 25.0104 21.48C26.2977 23.3905 28.4841 24.6472 30.9463 24.6472C33.4187 24.6472 35.5948 23.3905 36.8821 21.48C38.1694 23.3905 40.3557 24.6472 42.8282 24.6472C42.9712 24.6472 43.104 24.6369 43.247 24.6369V44.3754ZM42.8282 22.1952C40.509 22.1952 38.5781 20.5196 38.1898 18.3129H47.4767C47.0783 20.5094 45.1473 22.1952 42.8282 22.1952Z" fill="#1A94B6"/>
</g>
<defs>
<clipPath id="clip0_39_1147">
<rect width="50" height="50" fill="white"/>
</clipPath>
</defs>
</svg>