<svg width="127" height="27" viewBox="0 0 127 27" fill="none" xmlns="http://www.w3.org/2000/svg">
<path d="M27.3703 13.4987C27.3703 20.906 21.1927 27 13.6865 27C6.18023 27 0 20.906 0 13.4987C0 6.09145 6.17762 0 13.6865 0C16.4928 0 19.2338 0.85141 21.5353 2.44071L19.6078 5.1549C15.4728 2.30913 9.6692 2.81739 6.13839 6.54811C2.27541 10.6323 2.50034 17.1314 6.64054 20.9421L8.09472 19.407L9.9072 17.49C10.9481 18.4214 12.3395 18.971 13.8382 18.9194C14.1756 18.909 14.5051 18.8652 14.8242 18.7955L15.3839 21.4065L15.8259 23.4628C17.8973 23.0293 19.7856 21.9767 21.232 20.4493C23.0784 18.4988 23.9912 15.9962 23.9886 13.4987H27.3703Z" fill="#6A41CC"/>
<path d="M21.8624 13.4992C21.8624 15.4807 21.1405 17.4673 19.6733 19.0153C18.5277 20.2279 17.0291 21.0613 15.384 21.407L14.8243 18.796C17.3194 18.2619 19.192 16.0689 19.2339 13.4992C19.2391 13.4063 19.2365 13.3135 19.2339 13.218C19.1737 11.461 18.2688 9.91556 16.9192 8.94546H16.9166C15.9437 8.24628 14.738 7.85153 13.4538 7.89539L13.6473 13.4063L11.0738 11.7551L8.96051 10.4006C8.33281 11.3475 8.01896 12.4646 8.05819 13.5947C8.1105 15.1401 8.81928 16.523 9.90729 17.4905L8.09481 19.4075C4.80984 16.3811 4.62938 11.2236 7.69726 7.98311C10.501 5.02124 15.1041 4.62134 18.3839 6.88144C18.6951 7.09558 18.9933 7.33295 19.2757 7.59353C20.9914 9.17251 21.8597 11.332 21.8624 13.4992Z" fill="#58F4C2"/>
<path d="M16.7151 13.3027C16.7177 13.3698 16.7177 13.4343 16.7151 13.4988C16.6733 14.8894 15.6532 16.0711 14.3011 16.3626C14.1232 16.4013 13.9401 16.4246 13.7518 16.4323C12.9437 16.4607 12.193 16.1691 11.6255 15.6764C11.0109 15.1423 10.6107 14.3734 10.5793 13.5091C10.5584 12.8899 10.731 12.2759 11.0737 11.7547L13.6472 13.4059L13.5426 10.3796C14.2618 10.3563 14.934 10.5834 15.4728 10.9807C16.1973 11.5148 16.6811 12.3533 16.7151 13.3027Z" fill="#22211D"/>
<path d="M34.4569 22.7748V6.20314H40.4735V3.17676H24.9553V6.20314H30.972V22.7748H34.4569Z" fill="#6A41CC"/>
<path d="M53.6144 22.7748V13.3724C53.6144 9.55273 50.8146 8.23052 47.6276 8.23052C45.3341 8.23052 43.2491 8.96508 41.5811 10.5223L42.8619 12.6673C44.1129 11.4626 45.5128 10.8749 47.1212 10.8749C49.1168 10.8749 50.487 11.8739 50.487 13.5193V15.6349C49.4445 14.4302 47.7765 13.8132 45.8405 13.8132C43.4874 13.8132 40.8365 15.1648 40.8365 18.4262C40.8365 21.5701 43.4874 23.1274 45.8405 23.1274C47.7467 23.1274 49.4147 22.4516 50.487 21.2469V22.7748H53.6144ZM50.487 19.5427C49.7721 20.5123 48.4318 21.0118 47.0617 21.0118C45.3043 21.0118 43.9938 20.0128 43.9938 18.485C43.9938 16.9277 45.3043 15.9287 47.0617 15.9287C48.4318 15.9287 49.7721 16.4282 50.487 17.3978V19.5427Z" fill="#6A41CC"/>
<path d="M69.3153 22.7748V20.101H62.0179L69.1961 10.8456V8.58311H57.9075V11.2863H65.0262L57.9075 20.4536V22.7748H69.3153Z" fill="#6A41CC"/>
<path d="M94.3525 22.7748V3.17676H89.4379L84.0169 16.3694L78.6258 3.17676H73.7112V22.7748H77.1961V7.9367L83.2723 22.7748H84.7616L90.8676 7.9367V22.7748H94.3525Z" fill="#22211D"/>
<path d="M111.299 22.7748V13.3724C111.299 9.55273 108.499 8.23052 105.312 8.23052C103.019 8.23052 100.934 8.96508 99.2659 10.5223L100.547 12.6673C101.798 11.4626 103.198 10.8749 104.806 10.8749C106.802 10.8749 108.172 11.8739 108.172 13.5193V15.6349C107.129 14.4302 105.461 13.8132 103.525 13.8132C101.172 13.8132 98.5212 15.1648 98.5212 18.4262C98.5212 21.5701 101.172 23.1274 103.525 23.1274C105.431 23.1274 107.099 22.4516 108.172 21.2469V22.7748H111.299ZM108.172 19.5427C107.457 20.5123 106.117 21.0118 104.746 21.0118C102.989 21.0118 101.678 20.0128 101.678 18.485C101.678 16.9277 102.989 15.9287 104.746 15.9287C106.117 15.9287 107.457 16.4282 108.172 17.3978V19.5427Z" fill="#22211D"/>
<path d="M127 22.7748V20.101H119.703L126.881 10.8456V8.58311H115.592V11.2863H122.711L115.592 20.4536V22.7748H127Z" fill="#22211D"/>
</svg>
