<svg width="158" height="34" viewBox="0 0 158 34" fill="none" xmlns="http://www.w3.org/2000/svg">
<path d="M34 16.9984C34 26.326 26.326 34 17.0016 34C7.67721 34 0 26.326 0 16.9984C0 7.67071 7.67396 0 17.0016 0C20.4877 0 23.8926 1.07215 26.7516 3.07348L24.3572 6.49135C19.2206 2.90779 12.0113 3.54783 7.62523 8.24577C2.82657 13.3888 3.10597 21.5729 8.24902 26.3715L10.0554 24.4384L12.3069 22.0245C13.6 23.1973 15.3284 23.8893 17.1901 23.8244C17.6092 23.8114 18.0185 23.7561 18.4149 23.6684L19.1102 26.9563L19.6592 29.5457C22.2324 28.9999 24.5781 27.6743 26.3748 25.751C28.6685 23.2948 29.8024 20.1433 29.7991 16.9984H34Z" fill="#6A41CC"/>
<path d="M27.158 16.9985C27.158 19.4936 26.2613 21.9953 24.4387 23.9447C23.0156 25.4717 21.154 26.5211 19.1104 26.9564L18.4152 23.6685C21.5146 22.996 23.8409 20.2344 23.8928 16.9985C23.8993 16.8815 23.8961 16.7646 23.8928 16.6443C23.8181 14.4318 22.694 12.4857 21.0175 11.2641H21.0143C19.8057 10.3837 18.3079 9.88658 16.7127 9.94181L16.9531 16.8815L13.7562 14.8022L11.1311 13.0965C10.3513 14.2889 9.96145 15.6957 10.0102 17.1187C10.0752 19.0648 10.9556 20.8062 12.3072 22.0246L10.0557 24.4385C5.97502 20.6275 5.75084 14.1329 9.56183 10.0523C13.0447 6.32251 18.7628 5.81892 22.8369 8.66498C23.2236 8.93464 23.5939 9.23354 23.9448 9.56169C26.0761 11.55 27.1548 14.2694 27.158 16.9985Z" fill="#58F4C2"/>
<path d="M20.7637 16.7515C20.767 16.8359 20.767 16.9172 20.7637 16.9984C20.7118 18.7496 19.4447 20.2376 17.765 20.6047C17.5441 20.6534 17.3166 20.6827 17.0827 20.6924C16.0788 20.7282 15.1463 20.361 14.4413 19.7405C13.6778 19.068 13.1807 18.0998 13.1418 17.0114C13.1158 16.2316 13.3302 15.4584 13.7558 14.8021L16.9527 16.8814L16.8228 13.0704C17.7162 13.0412 18.5512 13.3271 19.2205 13.8274C20.1205 14.5 20.7215 15.5559 20.7637 16.7515Z" fill="#22211D"/>
<path d="M42.803 28.679V7.811H50.277V4H31V7.811H38.474V28.679H42.803Z" fill="#6A41CC"/>
<path d="M66.6009 28.679V16.839C66.6009 12.029 63.1229 10.364 59.1639 10.364C56.3149 10.364 53.7249 11.289 51.6529 13.25L53.2439 15.951C54.7979 14.434 56.5369 13.694 58.5349 13.694C61.0139 13.694 62.7159 14.952 62.7159 17.024V19.688C61.4209 18.171 59.3489 17.394 56.9439 17.394C54.0209 17.394 50.7279 19.096 50.7279 23.203C50.7279 27.162 54.0209 29.123 56.9439 29.123C59.3119 29.123 61.3839 28.272 62.7159 26.755V28.679H66.6009ZM62.7159 24.609C61.8279 25.83 60.1629 26.459 58.4609 26.459C56.2779 26.459 54.6499 25.201 54.6499 23.277C54.6499 21.316 56.2779 20.058 58.4609 20.058C60.1629 20.058 61.8279 20.687 62.7159 21.908V24.609Z" fill="#6A41CC"/>
<path d="M86.1049 28.679V25.312H77.0399L85.9569 13.657V10.808H71.9339V14.212H80.7769L71.9339 25.756V28.679H86.1049Z" fill="#6A41CC"/>
<path d="M117.207 28.679V4H111.102L104.368 20.613L97.6705 4H91.5655V28.679H95.8945V9.994L103.443 28.679H105.293L112.878 9.994V28.679H117.207Z" fill="#22211D"/>
<path d="M138.258 28.679V16.839C138.258 12.029 134.78 10.364 130.821 10.364C127.972 10.364 125.382 11.289 123.31 13.25L124.901 15.951C126.455 14.434 128.194 13.694 130.192 13.694C132.671 13.694 134.373 14.952 134.373 17.024V19.688C133.078 18.171 131.006 17.394 128.601 17.394C125.678 17.394 122.385 19.096 122.385 23.203C122.385 27.162 125.678 29.123 128.601 29.123C130.969 29.123 133.041 28.272 134.373 26.755V28.679H138.258ZM134.373 24.609C133.485 25.83 131.82 26.459 130.118 26.459C127.935 26.459 126.307 25.201 126.307 23.277C126.307 21.316 127.935 20.058 130.118 20.058C131.82 20.058 133.485 20.687 134.373 21.908V24.609Z" fill="#22211D"/>
<path d="M157.762 28.679V25.312H148.697L157.614 13.657V10.808H143.591V14.212H152.434L143.591 25.756V28.679H157.762Z" fill="#22211D"/>
</svg>
