<svg width="126" height="27" viewBox="0 0 126 27" fill="none" xmlns="http://www.w3.org/2000/svg">
<path d="M27.1548 13.4987C27.1548 20.906 21.0259 27 13.5787 27C6.13157 27 0 20.906 0 13.4987C0 6.09145 6.12897 0 13.5787 0C16.363 0 19.0823 0.85141 21.3658 2.44071L19.4534 5.1549C15.351 2.30913 9.59306 2.81739 6.09005 6.54811C2.2575 10.6323 2.48065 17.1314 6.58826 20.9421L8.03098 19.407L9.82919 17.49C10.8619 18.4214 12.2424 18.971 13.7292 18.9194C14.0639 18.909 14.3909 18.8652 14.7075 18.7955L15.2628 21.4065L15.7013 23.4628C17.7564 23.0293 19.6298 21.9767 21.0648 20.4493C22.8967 18.4988 23.8023 15.9962 23.7997 13.4987H27.1548Z" fill="white"/>
<path d="M21.6901 13.4992C21.6901 15.4807 20.974 17.4673 19.5183 19.0153C18.3817 20.2279 16.8949 21.0613 15.2628 21.407L14.7075 18.796C17.1829 18.2619 19.0408 16.0689 19.0823 13.4992C19.0875 13.4063 19.0849 13.3135 19.0823 13.218C19.0227 11.461 18.1249 9.91556 16.7859 8.94546H16.7833C15.8181 8.24628 14.6218 7.85153 13.3478 7.89539L13.5398 13.4063L10.9865 11.7551L8.88987 10.4006C8.26712 11.3475 7.95574 12.4646 7.99466 13.5947C8.04656 15.1401 8.74975 16.523 9.8292 17.4905L8.03099 19.4075C4.77189 16.3811 4.59285 11.2236 7.63658 7.98311C10.4182 5.02124 14.9851 4.62134 18.239 6.88144C18.5478 7.09558 18.8436 7.33295 19.1239 7.59353C20.8261 9.17251 21.6875 11.332 21.6901 13.4992Z" fill="white"/>
<path d="M16.5833 13.3027C16.5859 13.3698 16.5859 13.4343 16.5833 13.4988C16.5418 14.8894 15.5298 16.0711 14.1883 16.3626C14.0118 16.4013 13.8302 16.4246 13.6433 16.4323C12.8415 16.4607 12.0968 16.1691 11.5338 15.6764C10.924 15.1423 10.527 14.3734 10.4958 13.5091C10.4751 12.8899 10.6463 12.2759 10.9862 11.7547L13.5396 13.4059L13.4358 10.3796C14.1493 10.3563 14.8162 10.5834 15.3507 10.9807C16.0695 11.5148 16.5496 12.3533 16.5833 13.3027Z" fill="white"/>
<path d="M34.1855 22.7748V6.20314H40.1548V3.17676H24.7588V6.20314H30.7281V22.7748H34.1855Z" fill="white"/>
<path d="M53.1922 22.7748V13.3724C53.1922 9.55273 50.4145 8.23052 47.2525 8.23052C44.9771 8.23052 42.9085 8.96508 41.2537 10.5223L42.5244 12.6673C43.7655 11.4626 45.1544 10.8749 46.7502 10.8749C48.7301 10.8749 50.0894 11.8739 50.0894 13.5193V15.6349C49.0551 14.4302 47.4003 13.8132 45.4795 13.8132C43.145 13.8132 40.5149 15.1648 40.5149 18.4262C40.5149 21.5701 43.145 23.1274 45.4795 23.1274C47.3707 23.1274 49.0256 22.4516 50.0894 21.2469V22.7748H53.1922ZM50.0894 19.5427C49.3802 20.5123 48.0504 21.0118 46.6911 21.0118C44.9476 21.0118 43.6473 20.0128 43.6473 18.485C43.6473 16.9277 44.9476 15.9287 46.6911 15.9287C48.0504 15.9287 49.3802 16.4282 50.0894 17.3978V19.5427Z" fill="white"/>
<path d="M68.7695 22.7748V20.101H61.5295L68.6513 10.8456V8.58311H57.4515V11.2863H64.5141L57.4515 20.4536V22.7748H68.7695Z" fill="white"/>
<path d="M93.6095 22.7748V3.17676H88.7336L83.3553 16.3694L78.0066 3.17676H73.1307V22.7748H76.5882V7.9367L82.6166 22.7748H84.0941L90.152 7.9367V22.7748H93.6095Z" fill="white"/>
<path d="M110.423 22.7748V13.3724C110.423 9.55273 107.645 8.23052 104.483 8.23052C102.208 8.23052 100.139 8.96508 98.4842 10.5223L99.7549 12.6673C100.996 11.4626 102.385 10.8749 103.981 10.8749C105.961 10.8749 107.32 11.8739 107.32 13.5193V15.6349C106.286 14.4302 104.631 13.8132 102.71 13.8132C100.375 13.8132 97.7454 15.1648 97.7454 18.4262C97.7454 21.5701 100.375 23.1274 102.71 23.1274C104.601 23.1274 106.256 22.4516 107.32 21.2469V22.7748H110.423ZM107.32 19.5427C106.611 20.5123 105.281 21.0118 103.922 21.0118C102.178 21.0118 100.878 20.0128 100.878 18.485C100.878 16.9277 102.178 15.9287 103.922 15.9287C105.281 15.9287 106.611 16.4282 107.32 17.3978V19.5427Z" fill="white"/>
<path d="M126 22.7748V20.101H118.76L125.882 10.8456V8.58311H114.682V11.2863H121.745L114.682 20.4536V22.7748H126Z" fill="white"/>
</svg>
