<svg width="16" height="15" viewBox="0 0 16 15" fill="none" xmlns="http://www.w3.org/2000/svg">
<path d="M2.44381 7.2331C2.16767 7.23391 1.89739 7.31632 1.66424 7.47079C1.4311 7.62526 1.24461 7.84547 1.12636 8.10597C1.0081 8.36646 0.962916 8.65658 0.996023 8.94276C1.02913 9.22895 1.13918 9.4995 1.31344 9.72312L5.02821 14.4735C5.16066 14.6452 5.33043 14.7814 5.52344 14.8708C5.71645 14.9602 5.92711 15.0003 6.13793 14.9877C6.58882 14.9624 6.9959 14.7106 7.25544 14.2966L14.972 1.32359C14.9732 1.32144 14.9745 1.31929 14.9759 1.31717C15.0483 1.20112 15.0248 0.971136 14.8754 0.826659C14.8343 0.786985 14.7859 0.756503 14.7332 0.737093C14.6804 0.717682 14.6244 0.709753 14.5686 0.713794C14.5128 0.717835 14.4583 0.733761 14.4086 0.760591C14.3589 0.78742 14.315 0.824585 14.2796 0.869797C14.2769 0.873351 14.274 0.876852 14.2711 0.8803L6.48885 10.0591C6.45924 10.094 6.42327 10.1224 6.38305 10.1427C6.34282 10.163 6.29912 10.1748 6.25451 10.1773C6.20989 10.1798 6.16524 10.173 6.12315 10.1574C6.08106 10.1418 6.04236 10.1175 6.00931 10.0861L3.42654 7.63261C3.1583 7.37592 2.8077 7.23339 2.44381 7.2331Z" fill="#2AC584"/>
</svg>
