<svg width="16" height="16" viewBox="0 0 16 16" fill="none" xmlns="http://www.w3.org/2000/svg">
<path d="M11.8687 8.09059C11.8223 8.04316 11.7669 8.00544 11.7058 7.97963C11.6446 7.95382 11.579 7.94043 11.5126 7.94025C11.4463 7.94007 11.3805 7.9531 11.3193 7.97857C11.258 8.00405 11.2024 8.04147 11.1558 8.08865C11.1091 8.13583 11.0723 8.19182 11.0475 8.25336C11.0227 8.31491 11.0104 8.38078 11.0113 8.44712C11.0122 8.51347 11.0263 8.57898 11.0528 8.63981C11.0793 8.70065 11.1176 8.75561 11.1656 8.80149C11.5898 9.21891 11.9263 9.71686 12.1555 10.2661C12.3846 10.8154 12.5018 11.4049 12.5 12C12.5 12.6115 10.7471 13.5 8.00002 13.5C5.25297 13.5 3.50002 12.6111 3.50002 11.999C3.49834 11.4079 3.61391 10.8224 3.84004 10.2763C4.06618 9.73027 4.39838 9.23447 4.81742 8.81764C4.86482 8.77143 4.90257 8.71627 4.92848 8.65536C4.95439 8.59445 4.96795 8.529 4.96837 8.4628C4.96879 8.39661 4.95606 8.33099 4.93092 8.26976C4.90579 8.20852 4.86874 8.15289 4.82193 8.10608C4.77513 8.05928 4.71949 8.02223 4.65826 7.99709C4.59702 7.97195 4.5314 7.95923 4.46521 7.95965C4.39902 7.96007 4.33357 7.97362 4.27266 7.99954C4.21174 8.02545 4.15658 8.0632 4.11037 8.11059C3.59809 8.62019 3.19197 9.22634 2.91556 9.89396C2.63914 10.5616 2.4979 11.2774 2.50002 12C2.50002 13.6238 5.33352 14.5 8.00002 14.5C10.6665 14.5 13.5 13.6238 13.5 12C13.5022 11.2725 13.3591 10.552 13.0789 9.88063C12.7988 9.20929 12.3873 8.60069 11.8687 8.09059Z" fill="#474E9F"/>
<path d="M8 8.5C8.69223 8.5 9.36892 8.29473 9.9445 7.91015C10.5201 7.52556 10.9687 6.97894 11.2336 6.33939C11.4985 5.69985 11.5678 4.99612 11.4327 4.31719C11.2977 3.63825 10.9644 3.01461 10.4749 2.52513C9.98539 2.03564 9.36175 1.7023 8.68282 1.56725C8.00388 1.4322 7.30015 1.50152 6.66061 1.76642C6.02107 2.03133 5.47444 2.47993 5.08986 3.05551C4.70527 3.63108 4.5 4.30777 4.5 5C4.50107 5.92793 4.87016 6.81755 5.52631 7.47369C6.18246 8.12984 7.07207 8.49893 8 8.5ZM8 2.5C8.49445 2.5 8.9778 2.64662 9.38893 2.92133C9.80005 3.19603 10.1205 3.58648 10.3097 4.04329C10.4989 4.50011 10.5484 5.00277 10.452 5.48773C10.3555 5.97268 10.1174 6.41814 9.76777 6.76777C9.41814 7.1174 8.97268 7.3555 8.48773 7.45196C8.00277 7.54843 7.50011 7.49892 7.04329 7.3097C6.58648 7.12048 6.19603 6.80005 5.92133 6.38893C5.64662 5.9778 5.5 5.49445 5.5 5C5.50078 4.3372 5.76442 3.70177 6.2331 3.2331C6.70177 2.76443 7.3372 2.50078 8 2.5V2.5Z" fill="#474E9F"/>
</svg>
